

<svg xmlns="http://www.w3.org/2000/svg" width="16px" height="16px" viewBox="0 0 323 323" version="1.1"><path d="M 137.500 1 C 138.300 2.294, 141.700 2.294, 142.500 1 C 142.862 0.415, 141.824 0, 140 0 C 138.176 0, 137.138 0.415, 137.500 1 M 180.500 1 C 181.300 2.294, 184.700 2.294, 185.500 1 C 185.862 0.415, 184.824 0, 183 0 C 181.176 0, 180.138 0.415, 180.500 1 M 187.473 1.956 C 187.798 2.482, 188.725 2.659, 189.532 2.349 C 191.599 1.556, 191.356 1, 188.941 1 C 187.809 1, 187.148 1.430, 187.473 1.956 M 127.800 3.200 C 128.733 4.133, 129.267 4.133, 130.200 3.200 C 131.133 2.267, 130.867 2, 129 2 C 127.133 2, 126.867 2.267, 127.800 3.200 M 192.800 3.200 C 193.733 4.133, 194.267 4.133, 195.200 3.200 C 196.133 2.267, 195.867 2, 194 2 C 192.133 2, 191.867 2.267, 192.800 3.200 M 120.157 3.995 C 118.319 4.430, 116.294 5.318, 115.657 5.969 C 114.768 6.879, 115.079 6.925, 117 6.169 C 118.375 5.627, 121.075 4.739, 123 4.194 C 127.160 3.017, 124.948 2.862, 120.157 3.995 M 197.500 3.475 C 198.050 3.749, 200.750 4.633, 203.500 5.439 C 207.849 6.715, 208.247 6.717, 206.559 5.453 C 205.491 4.654, 203.916 3.994, 203.059 3.986 C 202.201 3.979, 200.375 3.749, 199 3.475 C 197.625 3.202, 196.950 3.202, 197.500 3.475 M 110 7 C 108.707 7.835, 108.734 7.971, 110.191 7.985 C 111.121 7.993, 112.160 7.550, 112.500 7 C 113.282 5.734, 111.958 5.734, 110 7 M 210 7 C 210 7.550, 211.012 7.993, 212.250 7.985 C 214.069 7.972, 214.213 7.784, 213 7 C 211.061 5.747, 210 5.747, 210 7 M 105.500 9 C 105.160 9.550, 105.332 10, 105.882 10 C 106.432 10, 107.160 9.550, 107.500 9 C 107.840 8.450, 107.668 8, 107.118 8 C 106.568 8, 105.840 8.450, 105.500 9 M 215.500 9 C 215.840 9.550, 216.916 10, 217.892 10 C 218.868 10, 219.961 10.295, 220.322 10.655 C 221.660 11.994, 229 14.871, 229 14.057 C 229 13.593, 226.070 12.040, 222.489 10.606 C 215.247 7.707, 214.610 7.561, 215.500 9 M 100.500 11 C 100.160 11.550, 100.332 12, 100.882 12 C 101.432 12, 102.160 11.550, 102.500 11 C 102.840 10.450, 102.668 10, 102.118 10 C 101.568 10, 100.840 10.450, 100.500 11 M 95.998 12.624 L 93.500 14.083 96 13.417 C 98.785 12.676, 99.536 12.203, 98.915 11.582 C 98.685 11.352, 97.373 11.821, 95.998 12.624 M 84.224 18.155 C 78.318 21.894, 81.459 21.124, 87.917 17.250 C 88.146 17.113, 88.134 16.801, 87.890 16.557 C 87.647 16.313, 85.997 17.033, 84.224 18.155 M 234 16.418 C 234 17.204, 241.104 21.230, 241.605 20.728 C 241.880 20.453, 240.566 19.277, 238.685 18.114 C 235.353 16.055, 234 15.565, 234 16.418 M 74 24 C 72.707 24.835, 72.734 24.971, 74.191 24.985 C 75.121 24.993, 76.160 24.550, 76.500 24 C 77.282 22.734, 75.958 22.734, 74 24 M 247.262 24.690 C 248.192 25.620, 249.288 26.046, 249.697 25.636 C 250.107 25.226, 249.780 24.473, 248.971 23.961 C 246.536 22.421, 245.455 22.883, 247.262 24.690 M 251 26.941 C 251 27.523, 251.338 28.002, 251.750 28.004 C 252.162 28.007, 254.863 29.800, 257.750 31.989 C 260.637 34.178, 263 35.565, 263 35.070 C 263 34.575, 260.863 32.629, 258.250 30.744 C 251.912 26.173, 251 25.694, 251 26.941 M 64.709 30.656 C 62.074 32.634, 60.167 34.500, 60.470 34.803 C 60.773 35.106, 62.254 34.219, 63.760 32.830 C 65.267 31.442, 67.613 29.563, 68.973 28.653 C 70.332 27.744, 71.007 27.014, 70.473 27.030 C 69.938 27.047, 67.344 28.679, 64.709 30.656 M 46.500 47 C 41.021 52.500, 36.754 56.998, 37.019 56.996 C 37.283 56.994, 42.097 52.494, 47.715 46.996 C 53.333 41.498, 57.600 37, 57.196 37 C 56.793 37, 51.979 41.500, 46.500 47 M 275.305 47.301 C 280.912 52.967, 285.702 57.453, 285.949 57.269 C 286.511 56.852, 266.800 37, 265.824 37 C 265.432 37, 269.698 41.636, 275.305 47.301 M 154.500 40.399 C 139.885 45.021, 127.378 56.916, 118.009 75.105 C 108.981 92.632, 101.576 117.782, 88.011 177 C 79.140 215.725, 71.032 241, 67.480 241 C 66.806 241, 65.974 239.241, 65.631 237.091 C 63.734 225.228, 44.795 224.329, 36.983 235.730 C 34.899 238.772, 34.500 240.521, 34.500 246.629 C 34.500 253.709, 34.602 254.008, 38.319 257.814 C 43.298 262.913, 47.967 264.393, 57.205 263.801 C 69.361 263.021, 80.618 256.165, 91.143 243.133 C 103.908 227.327, 112.783 203.451, 124.568 153.211 C 126.466 145.120, 130.024 129.950, 132.475 119.500 C 140.289 86.187, 148.054 62.445, 151.500 61.334 C 152.050 61.157, 153.175 63.114, 154 65.683 C 156.103 72.233, 159.312 74.338, 167.077 74.265 C 172.198 74.217, 173.927 73.723, 177.269 71.354 C 182.619 67.560, 185 62.872, 185 56.134 C 185 48.953, 182.422 44.887, 175.766 41.571 C 169.934 38.664, 161.461 38.197, 154.500 40.399 M 287.041 59.241 C 287.004 59.906, 291.881 66.975, 295.213 71.088 C 297.142 73.468, 298.875 76.209, 300.215 79 C 300.875 80.375, 302.896 83.871, 304.707 86.769 C 306.518 89.668, 308.003 92.593, 308.006 93.269 C 308.010 93.946, 308.591 95.625, 309.297 97 C 311.405 101.100, 316.673 117.059, 318.044 123.500 C 318.747 126.800, 319.700 129.927, 320.161 130.450 C 321.739 132.237, 321.241 129.488, 317.091 113.500 C 315.748 108.323, 309.049 92.278, 305.295 85.245 C 299.398 74.196, 287.175 56.785, 287.041 59.241 M 31.496 63.723 L 28.713 67.500 32.055 64.282 C 33.893 62.512, 35.146 60.812, 34.838 60.505 C 34.531 60.197, 33.027 61.645, 31.496 63.723 M 23.638 74.500 C 23.322 75.325, 23.499 76, 24.031 76 C 24.564 76, 25 75.325, 25 74.500 C 25 73.675, 24.823 73, 24.607 73 C 24.391 73, 23.955 73.675, 23.638 74.500 M 183.614 74.815 C 183.293 75.334, 187.672 84.476, 193.345 95.130 C 213.635 133.236, 235 173.851, 235 174.315 C 235 174.683, 172.344 233.356, 145.740 257.901 C 143.116 260.322, 141.141 262.475, 141.351 262.685 C 141.562 262.895, 165.933 263.045, 195.509 263.017 C 247.341 262.969, 249.452 262.894, 253.893 260.934 C 259.497 258.461, 265.452 252.885, 268.240 247.500 C 272.508 239.257, 282.994 211.594, 282.165 210.765 C 281.693 210.293, 277.982 210.040, 273.920 210.203 C 266.757 210.491, 266.472 210.601, 264.516 213.809 C 263.407 215.629, 259.978 220.606, 256.895 224.869 C 246.556 239.167, 239.383 241.780, 209.249 242.229 C 199.211 242.378, 190.998 242.254, 190.999 241.952 C 191 241.651, 196.963 235.569, 204.250 228.436 C 211.537 221.304, 228.165 205.039, 241.200 192.292 L 264.901 169.115 259.588 159.308 C 252.195 145.660, 224 91.843, 224 91.380 C 224 90.585, 242.920 91.045, 251.026 92.037 C 261.490 93.317, 268.616 96.581, 271.811 101.558 C 274.276 105.398, 278 118.421, 278 123.200 L 278 126.081 286.250 125.790 L 294.500 125.500 295.675 113.500 C 297.250 97.428, 297.271 84.104, 295.727 81 C 295.044 79.625, 292.688 77.600, 290.492 76.500 C 286.683 74.592, 284.160 74.486, 235.349 74.185 C 203.972 73.992, 183.972 74.236, 183.614 74.815 M 16.676 87.027 C 15.232 89.810, 14.443 91.844, 14.922 91.548 C 16.067 90.841, 20.208 82.875, 19.697 82.364 C 19.479 82.146, 18.120 84.244, 16.676 87.027 M 10.579 100.579 C 9.111 104.245, 8.145 107.479, 8.432 107.765 C 8.718 108.052, 9.228 107.434, 9.564 106.393 C 9.901 105.352, 11.041 102.292, 12.098 99.593 C 13.155 96.894, 13.846 94.512, 13.633 94.300 C 13.421 94.088, 12.046 96.913, 10.579 100.579 M 6.638 110.500 C 6.322 111.325, 6.499 112, 7.031 112 C 7.564 112, 8 111.325, 8 110.500 C 8 109.675, 7.823 109, 7.607 109 C 7.391 109, 6.955 109.675, 6.638 110.500 M 4.624 117.539 C 4.281 118.432, 4.039 119.914, 4.086 120.832 C 4.133 121.749, 4.568 121.173, 5.053 119.550 C 5.996 116.394, 5.662 114.832, 4.624 117.539 M 320.827 132.493 C 320.179 133.154, 320.674 138.941, 321.639 141.972 C 322.052 143.268, 322.219 143.268, 323.038 141.972 C 324.252 140.054, 324.275 135.712, 323.068 136.458 C 322.555 136.775, 321.993 135.858, 321.818 134.421 C 321.643 132.984, 321.197 132.116, 320.827 132.493 M 322.195 149.500 C 322.215 151.150, 322.439 151.704, 322.693 150.731 C 322.947 149.758, 322.930 148.408, 322.656 147.731 C 322.382 147.054, 322.175 147.850, 322.195 149.500 M 322.195 173.500 C 322.215 175.150, 322.439 175.704, 322.693 174.731 C 322.947 173.758, 322.930 172.408, 322.656 171.731 C 322.382 171.054, 322.175 171.850, 322.195 173.500 M 321.667 180.667 C 321.300 181.033, 321.052 183.396, 321.116 185.917 C 321.180 188.438, 321.448 189.600, 321.713 188.500 C 321.978 187.400, 322.600 186.072, 323.097 185.550 C 325.148 183.393, 323.741 178.592, 321.667 180.667 M 319.635 193.107 C 319.408 193.873, 318.476 197.875, 317.563 202 C 315.933 209.362, 311.962 220.932, 309.340 225.956 C 307.711 229.077, 307.439 232.407, 309.009 230 C 312.740 224.282, 322.140 193.806, 320.636 192.303 C 320.312 191.979, 319.862 192.341, 319.635 193.107 M 4.158 203 C 4.158 204.375, 4.385 204.938, 4.662 204.250 C 4.940 203.563, 4.940 202.438, 4.662 201.750 C 4.385 201.063, 4.158 201.625, 4.158 203 M 8.082 215.239 C 7.963 216.311, 13.185 229.149, 13.579 228.755 C 13.761 228.573, 13.339 226.866, 12.642 224.962 C 10.836 220.035, 8.178 214.367, 8.082 215.239 M 15.017 232.500 C 15.010 233.606, 19.919 241.887, 19.969 240.852 C 19.986 240.496, 18.880 238.246, 17.512 235.852 C 16.144 233.458, 15.021 231.950, 15.017 232.500 M 305.400 235.193 C 302.985 239.864, 300.185 244.788, 298.366 247.564 C 297.488 248.904, 297.168 250, 297.654 250 C 298.521 250, 304.277 240.397, 306.753 234.821 C 308.465 230.966, 307.441 231.247, 305.400 235.193 M 23.638 248.500 C 23.955 249.325, 24.391 250, 24.607 250 C 24.823 250, 25 249.325, 25 248.500 C 25 247.675, 24.564 247, 24.031 247 C 23.499 247, 23.322 247.675, 23.638 248.500 M 291.154 257.750 C 288.385 261.462, 281.592 268.992, 276.059 274.481 C 270.527 279.971, 266 284.911, 266 285.459 C 266 288.009, 290.254 261.915, 295.472 253.750 C 298.754 248.615, 296.211 250.971, 291.154 257.750 M 30.850 258.582 C 31.842 260.567, 35 263.760, 35 262.778 C 35 262.521, 33.832 261.004, 32.404 259.406 C 30.672 257.467, 30.155 257.193, 30.850 258.582 M 36 264.845 C 36 265.225, 40.725 270.245, 46.500 276 C 52.275 281.755, 57 286.216, 57 285.912 C 57 285.608, 52.275 280.588, 46.500 274.757 C 40.725 268.926, 36 264.466, 36 264.845 M 60.918 289.391 C 61.698 290.336, 63.273 291.608, 64.418 292.218 C 66.312 293.228, 66.372 293.173, 65.082 291.609 C 64.302 290.664, 62.727 289.392, 61.582 288.782 C 59.688 287.772, 59.628 287.827, 60.918 289.391 M 257.500 291.688 C 253.625 295.180, 253.604 295.234, 256.817 293.397 C 260.360 291.371, 263.906 287.973, 262.405 288.042 C 261.907 288.065, 259.700 289.706, 257.500 291.688 M 74.500 299 C 74.840 299.550, 75.568 300, 76.118 300 C 76.668 300, 76.840 299.550, 76.500 299 C 76.160 298.450, 75.432 298, 74.882 298 C 74.332 298, 74.160 298.450, 74.500 299 M 246.500 299 C 246.160 299.550, 246.332 300, 246.882 300 C 247.432 300, 248.160 299.550, 248.500 299 C 248.840 298.450, 248.668 298, 248.118 298 C 247.568 298, 246.840 298.450, 246.500 299 M 85.500 305.526 C 89.383 307.918, 91 308.505, 91 307.523 C 91 307.007, 82.987 302.980, 82.062 303.031 C 81.753 303.048, 83.300 304.171, 85.500 305.526 M 238 303.969 C 238 304.501, 238.675 304.678, 239.500 304.362 C 240.325 304.045, 241 303.609, 241 303.393 C 241 303.177, 240.325 303, 239.500 303 C 238.675 303, 238 303.436, 238 303.969 M 233.441 306.450 C 231.568 307.849, 231.580 307.880, 233.766 307.330 C 235.012 307.016, 236.276 306.363, 236.575 305.879 C 237.420 304.511, 235.591 304.844, 233.441 306.450 M 220.500 312 C 220.160 312.550, 220.332 313, 220.882 313 C 221.432 313, 222.160 312.550, 222.500 312 C 222.840 311.450, 222.668 311, 222.118 311 C 221.568 311, 220.840 311.450, 220.500 312 M 109 315.393 C 109 315.609, 109.675 316.045, 110.500 316.362 C 111.325 316.678, 112 316.501, 112 315.969 C 112 315.436, 111.325 315, 110.500 315 C 109.675 315, 109 315.177, 109 315.393 M 210.500 316 C 209.718 317.266, 211.042 317.266, 213 316 C 214.293 315.165, 214.266 315.029, 212.809 315.015 C 211.879 315.007, 210.840 315.450, 210.500 316 M 200.750 318.662 C 201.438 318.940, 202.563 318.940, 203.250 318.662 C 203.938 318.385, 203.375 318.158, 202 318.158 C 200.625 318.158, 200.063 318.385, 200.750 318.662 M 137.500 322 C 137.143 322.577, 138.070 322.994, 139.691 322.985 C 141.872 322.973, 142.165 322.753, 141 322 C 139.079 320.758, 138.267 320.758, 137.500 322 M 182 322 C 180.835 322.753, 181.128 322.973, 183.309 322.985 C 184.930 322.994, 185.857 322.577, 185.500 322 C 184.733 320.758, 183.921 320.758, 182 322" stroke="none" fill="#f7f8f8" fill-rule="evenodd"/><path d="M 142.534 0.944 C 142.213 1.464, 139.505 1.766, 136.517 1.616 C 132.533 1.416, 130.936 1.725, 130.533 2.775 C 130.230 3.563, 129.392 3.981, 128.671 3.704 C 127.949 3.427, 124.915 3.866, 121.929 4.681 C 118.943 5.495, 115.825 6.269, 115 6.401 C 113.178 6.693, 110.100 7.827, 107.790 9.057 C 106.849 9.558, 105.444 9.724, 104.669 9.426 C 103.893 9.129, 102.971 9.633, 102.621 10.546 C 102.252 11.508, 101.355 11.966, 100.492 11.635 C 99.671 11.320, 99 11.493, 99 12.020 C 99 12.546, 97.200 13.264, 95 13.616 C 92.800 13.968, 91 14.648, 91 15.128 C 91 15.608, 90.325 16, 89.500 16 C 88.675 16, 88 16.340, 88 16.756 C 88 17.497, 82.263 20.425, 80.714 20.475 C 80.281 20.489, 79.500 21.175, 78.979 22 C 78.457 22.825, 78.010 23.050, 77.985 22.500 C 77.960 21.950, 77.481 22.288, 76.920 23.250 C 76.359 24.213, 75.199 25, 74.341 25 C 73.484 25, 71.818 25.869, 70.641 26.931 C 65.620 31.458, 61.188 35, 60.542 35 C 59.532 35, 35 59.311, 35 60.312 C 35 60.777, 32.750 63.745, 30 66.907 C 27.250 70.068, 25 73.215, 25 73.899 C 25 74.583, 24.438 75.770, 23.750 76.537 C 20.718 79.918, 19.997 80.995, 19.957 82.208 C 19.933 82.919, 18.811 85.300, 17.463 87.500 C 14.765 91.907, 14.672 92.112, 11.825 100 C 10.733 103.025, 9.426 106.281, 8.920 107.236 C 8.414 108.191, 8 109.654, 8 110.486 C 8 111.319, 7.578 112, 7.062 112 C 6.546 112, 6.168 112.788, 6.221 113.750 C 6.333 115.770, 3.252 127.726, 2.007 130.103 C 0.852 132.307, 0.623 137.694, 0.664 161.750 C 0.707 186.422, 0.910 191.174, 1.977 192.500 C 2.420 193.050, 3.545 197.100, 4.477 201.500 C 5.410 205.900, 6.862 211.075, 7.705 213 C 9.206 216.428, 10.574 219.693, 12.859 225.297 C 13.487 226.835, 14 228.935, 14 229.964 C 14 230.992, 14.352 231.983, 14.783 232.167 C 15.880 232.634, 20 239.860, 20 241.317 C 20 241.979, 21.125 243.734, 22.500 245.217 C 23.875 246.699, 25 248.522, 25 249.268 C 25 250.013, 25.900 251.589, 27 252.770 C 28.100 253.950, 29 255.142, 29 255.417 C 29 256.701, 57.821 286.020, 64.181 291.206 C 66.007 292.695, 68.900 295.045, 70.611 296.428 C 72.322 297.812, 74.003 298.664, 74.346 298.321 C 74.689 297.978, 76.163 298.890, 77.621 300.348 C 79.080 301.807, 80.802 303, 81.449 303 C 83.413 303, 91 306.981, 91 308.012 C 91 308.542, 92.792 309.263, 94.982 309.613 C 97.346 309.991, 98.704 310.669, 98.325 311.282 C 97.925 311.931, 98.513 312.099, 99.905 311.735 C 101.340 311.360, 102.319 311.668, 102.680 312.607 C 103.023 313.503, 103.958 313.831, 105.118 313.462 C 106.158 313.132, 107 313.343, 107 313.933 C 107 314.520, 108.125 315, 109.500 315 C 110.875 315, 112 315.450, 112 316 C 112 316.550, 113.098 317, 114.441 317 C 115.784 317, 117.134 317.408, 117.442 317.906 C 117.750 318.404, 118.851 318.590, 119.888 318.319 C 120.926 318.048, 122.077 318.315, 122.446 318.913 C 122.816 319.511, 124.640 320, 126.500 320 C 128.360 320, 130.132 320.405, 130.438 320.900 C 131.144 322.041, 135.595 322.231, 161.500 322.225 C 185.921 322.218, 192 321.963, 192 320.941 C 192 320.534, 193.633 320.200, 195.629 320.200 C 197.625 320.200, 199.604 319.640, 200.027 318.957 C 200.449 318.273, 201.720 317.955, 202.850 318.250 C 203.980 318.546, 205.057 318.328, 205.244 317.767 C 205.431 317.206, 206.465 316.659, 207.542 316.553 C 208.619 316.446, 210.287 316.053, 211.250 315.679 C 215.779 313.921, 216.607 313.706, 218.127 313.888 C 219.022 313.996, 220.038 313.343, 220.385 312.438 C 220.749 311.489, 221.648 311.035, 222.508 311.365 C 223.329 311.680, 224 311.453, 224 310.862 C 224 310.270, 224.661 310.040, 225.468 310.349 C 226.275 310.659, 227.202 310.482, 227.527 309.956 C 227.852 309.430, 228.766 309, 229.559 309 C 230.352 309, 231.935 308.065, 233.077 306.923 C 234.220 305.780, 235.795 305.091, 236.577 305.391 C 237.410 305.711, 238 305.328, 238 304.469 C 238 303.564, 238.972 303, 240.531 303 C 241.924 303, 243.321 302.328, 243.636 301.506 C 243.952 300.684, 244.565 300.231, 245 300.500 C 245.435 300.769, 246.066 300.269, 246.404 299.391 C 246.747 298.495, 247.661 298.040, 248.481 298.354 C 249.322 298.677, 250.595 297.989, 251.473 296.736 C 252.313 295.536, 253 294.857, 253 295.227 C 253 295.596, 254.688 294.314, 256.750 292.377 C 258.813 290.441, 261.175 288.551, 262 288.178 C 264.340 287.120, 288.129 262.111, 292.371 256.250 C 294.461 253.363, 296.657 251, 297.252 251 C 297.847 251, 298.032 250.698, 297.663 250.330 C 297.295 249.961, 297.710 248.566, 298.586 247.229 C 299.462 245.892, 301.544 242.256, 303.214 239.149 C 304.883 236.042, 306.795 233.050, 307.462 232.500 C 308.130 231.950, 308.497 230.971, 308.279 230.324 C 308.061 229.677, 308.793 227.150, 309.905 224.709 C 314.287 215.090, 319 199.636, 319 194.888 C 319 193.815, 319.598 192.708, 320.329 192.427 C 321.290 192.059, 321.533 190.411, 321.206 186.474 C 320.843 182.099, 321.073 180.909, 322.377 180.409 C 323.799 179.863, 323.998 177.349, 323.985 160.143 C 323.975 147.626, 323.632 141.034, 323.038 141.972 C 322.219 143.268, 322.043 143.268, 321.564 141.972 C 321.264 141.162, 320.892 138.475, 320.735 136 C 320.579 133.525, 320.199 131.050, 319.892 130.500 C 319.584 129.950, 318.755 126.800, 318.049 123.500 C 316.670 117.049, 311.399 101.089, 309.297 97 C 308.591 95.625, 308.010 93.946, 308.006 93.269 C 308.003 92.593, 306.518 89.668, 304.707 86.769 C 302.896 83.871, 300.875 80.375, 300.215 79 C 298.666 75.774, 296.777 72.814, 295.443 71.523 C 294.533 70.643, 290.919 65.468, 287.500 60.151 C 286.144 58.042, 263 34.645, 263 35.383 C 263 35.706, 260.637 34.178, 257.750 31.989 C 254.863 29.800, 252.162 28.007, 251.750 28.004 C 251.338 28.002, 251 27.339, 251 26.531 C 251 25.685, 250.408 25.290, 249.604 25.599 C 248.836 25.893, 247.558 25.207, 246.764 24.074 C 245.970 22.940, 245.034 22.299, 244.684 22.649 C 244.334 23, 243.764 22.549, 243.419 21.649 C 243.073 20.748, 242.371 20.270, 241.859 20.587 C 241.347 20.903, 238.594 19.663, 235.742 17.831 C 232.889 15.999, 229.868 14.449, 229.027 14.387 C 227.619 14.283, 219.850 11.080, 215.764 8.918 C 214.809 8.413, 213.121 8, 212.014 8 C 210.906 8, 210 7.512, 210 6.917 C 210 6.321, 209.438 6.021, 208.751 6.250 C 208.064 6.479, 204.841 5.860, 201.587 4.875 C 198.334 3.890, 195.277 3.329, 194.793 3.628 C 194.308 3.927, 193.263 3.633, 192.469 2.974 C 191.675 2.315, 190.359 2.032, 189.545 2.344 C 188.730 2.657, 187.807 2.497, 187.493 1.989 C 187.179 1.481, 185.644 1.321, 184.083 1.633 C 182.481 1.954, 180.946 1.722, 180.562 1.101 C 179.703 -0.290, 143.389 -0.439, 142.534 0.944 M 154.500 40.399 C 139.885 45.021, 127.378 56.916, 118.009 75.105 C 108.981 92.632, 101.576 117.782, 88.011 177 C 79.140 215.725, 71.032 241, 67.480 241 C 66.806 241, 65.974 239.241, 65.631 237.091 C 63.734 225.228, 44.795 224.329, 36.983 235.730 C 34.899 238.772, 34.500 240.521, 34.500 246.629 C 34.500 253.709, 34.602 254.008, 38.319 257.814 C 43.298 262.913, 47.967 264.393, 57.205 263.801 C 69.361 263.021, 80.618 256.165, 91.143 243.133 C 103.908 227.327, 112.783 203.451, 124.568 153.211 C 126.466 145.120, 130.024 129.950, 132.475 119.500 C 140.289 86.187, 148.054 62.445, 151.500 61.334 C 152.050 61.157, 153.175 63.114, 154 65.683 C 156.103 72.233, 159.312 74.338, 167.077 74.265 C 172.198 74.217, 173.927 73.723, 177.269 71.354 C 182.619 67.560, 185 62.872, 185 56.134 C 185 48.953, 182.422 44.887, 175.766 41.571 C 169.934 38.664, 161.461 38.197, 154.500 40.399 M 183.614 74.815 C 183.293 75.334, 187.672 84.476, 193.345 95.130 C 213.635 133.236, 235 173.851, 235 174.315 C 235 174.683, 172.344 233.356, 145.740 257.901 C 143.116 260.322, 141.141 262.475, 141.351 262.685 C 141.562 262.895, 165.933 263.045, 195.509 263.017 C 247.341 262.969, 249.452 262.894, 253.893 260.934 C 259.497 258.461, 265.452 252.885, 268.240 247.500 C 272.508 239.257, 282.994 211.594, 282.165 210.765 C 281.693 210.293, 277.982 210.040, 273.920 210.203 C 266.757 210.491, 266.472 210.601, 264.516 213.809 C 263.407 215.629, 259.978 220.606, 256.895 224.869 C 246.556 239.167, 239.383 241.780, 209.249 242.229 C 199.211 242.378, 190.998 242.254, 190.999 241.952 C 191 241.651, 196.963 235.569, 204.250 228.436 C 211.537 221.304, 228.165 205.039, 241.200 192.292 L 264.901 169.115 259.588 159.308 C 252.195 145.660, 224 91.843, 224 91.380 C 224 90.585, 242.920 91.045, 251.026 92.037 C 261.490 93.317, 268.616 96.581, 271.811 101.558 C 274.276 105.398, 278 118.421, 278 123.200 L 278 126.081 286.250 125.790 L 294.500 125.500 295.675 113.500 C 297.250 97.428, 297.271 84.104, 295.727 81 C 295.044 79.625, 292.688 77.600, 290.492 76.500 C 286.683 74.592, 284.160 74.486, 235.349 74.185 C 203.972 73.992, 183.972 74.236, 183.614 74.815 M 0.420 161.500 C 0.419 172.500, 0.565 177.136, 0.745 171.803 C 0.924 166.470, 0.925 157.470, 0.746 151.803 C 0.568 146.136, 0.421 150.500, 0.420 161.500 M 322.195 149.500 C 322.215 151.150, 322.439 151.704, 322.693 150.731 C 322.947 149.758, 322.930 148.408, 322.656 147.731 C 322.382 147.054, 322.175 147.850, 322.195 149.500 M 322.195 173.500 C 322.215 175.150, 322.439 175.704, 322.693 174.731 C 322.947 173.758, 322.930 172.408, 322.656 171.731 C 322.382 171.054, 322.175 171.850, 322.195 173.500" stroke="none" fill="#284484" fill-rule="evenodd"/></svg> 
